<?xml version="1.0" encoding="utf-8"?>
<!-- Generator: Adobe Illustrator 16.0.0, SVG Export Plug-In . SVG Version: 6.00 Build 0)  -->
<!DOCTYPE svg PUBLIC "-//W3C//DTD SVG 1.1//EN" "http://www.w3.org/Graphics/SVG/1.1/DTD/svg11.dtd">
<svg version="1.1" id="Layer_1" xmlns="http://www.w3.org/2000/svg" xmlns:xlink="http://www.w3.org/1999/xlink" x="0px" y="0px"
	 width="770px" height="706px" viewBox="0 0 770 706" enable-background="new 0 0 770 706" xml:space="preserve">
<path fill-rule="evenodd" clip-rule="evenodd" fill="#2DA2CC" d="M687.176,667h82.832L385,0L-0.007,667h82.832l177.083-306.786
	L340,440c0,0-66,58.667-66,121c0,61.667,57.5,106,111,106c53.348,0,110.684-44.333,110.684-106c0-62.333-65.812-121-65.812-121
	l80.09-80.011L687.176,667z M432,559c0,25.958-21.043,47-47,47c-25.958,0-46-21.042-46-47c0-34.458,46-77,46-77S432,522.042,432,559
	z M385,400l-93.277-94.903L385,143.5l93.179,161.427L385,400z"/>
</svg>
